<svg width="13" height="21" viewBox="0 0 13 21" fill="none" xmlns="http://www.w3.org/2000/svg">
<path d="M5.43685 0.616821C4.4401 0.616821 3.62457 1.74182 3.62457 3.11682H1.81228C0.815528 3.11682 0 4.24182 0 5.61682H12.686C12.686 4.24182 11.8705 3.11682 10.8737 3.11682H9.06142C9.06142 1.74182 8.24589 0.616821 7.24914 0.616821H5.43685ZM1.81228 8.11682V20.1418C1.81228 20.4168 1.95727 20.6168 2.15662 20.6168H10.5475C10.7468 20.6168 10.8918 20.4168 10.8918 20.1418V8.11682H9.07954V16.8668C9.07954 17.5668 8.68084 18.1168 8.1734 18.1168C7.66596 18.1168 7.26726 17.5668 7.26726 16.8668V8.11682H5.45497V16.8668C5.45497 17.5668 5.05627 18.1168 4.54883 18.1168C4.04139 18.1168 3.64269 17.5668 3.64269 16.8668V8.11682H1.83041H1.81228Z" fill="black"/>
</svg>
